<svg xmlns="http://www.w3.org/2000/svg" viewBox="0 0 53 48"  xmlns:v="https://vecta.io/nano"><path d="M22.5 42.7c.3-.8.4-1.6.4-2.4 0-2.2.6-4.4 1.7-6.4a14.77 14.77 0 0 1 4.5-4.8 6.55 6.55 0 0 0 1.8-1.5c.5-.6.9-1.3 1.1-2.1s.3-1.6.2-2.3-.4-1.5-.8-2.2c-.5-.9-1.3-1.7-2.3-2.1l-1.5-1.2-1.2-1.2c-2.2-2.4-3.5-5.5-3.5-8.7 0-.8-.1-1.6-.4-2.4s-.7-1.4-1.3-2-1.2-1-2-1.4c-.7-.3-1.5-.5-2.3-.5s-1.6.2-2.3.5-1.4.8-2 1.3c-.6.6-1 1.3-1.3 2-.3.8-.4 1.6-.4 2.4 0 1 .3 2.1.8 3s1.3 1.6 2.2 2.1c3.7 2.3 6.3 6.8 6.3 11.2 0 3.2-1.2 6.3-3.5 8.7l-2.8 2.5c-.9.5-1.7 1.2-2.2 2.1s-.8 1.9-.8 3c0 .8.1 1.6.4 2.4s.7 1.4 1.3 2 1.2 1 2 1.4c.7.3 1.5.5 2.3.5s1.6-.2 2.3-.5 1.4-.8 2-1.4c.5-.6 1-1.3 1.3-2zM30.6 11c-.7-1-1-2.2-1-3.4 0-1.6.6-3.1 1.8-4.3 1-1 2.3-1.6 3.7-1.7s2.8.2 3.9 1c1 .7 1.8 1.6 2.2 2.7.5 1.1.6 2.3.3 3.5-.2 1.2-.8 2.2-1.6 3.1-.8.8-1.9 1.4-3.1 1.7-1.2.2-2.4.1-3.5-.3-1.1-.5-2-1.3-2.7-2.3zm1.7 24.3c1-.7 2.2-1 3.3-1 .8 0 1.6.2 2.3.5s1.4.7 1.9 1.3c1 1 1.6 2.3 1.7 3.7s-.2 2.8-1 3.9c-.7 1-1.6 1.8-2.7 2.2-1.1.5-2.3.6-3.5.3-1.2-.2-2.2-.8-3.1-1.7-.8-.8-1.4-1.9-1.6-3.1s-.1-2.4.3-3.5c.6-1 1.4-2 2.4-2.6zM50 20.6c.7 1 1 2.2 1 3.4 0 1.6-.6 3.1-1.8 4.3-.6.6-1.2 1-1.9 1.3s-1.5.4-2.3.4c-1.2 0-2.4-.4-3.3-1-1-.7-1.8-1.6-2.2-2.7-.5-1.1-.6-2.3-.3-3.5.2-1.2.8-2.2 1.6-3.1.8-.8 1.9-1.4 3.1-1.7 1.2-.2 2.4-.1 3.5.3 1 .6 1.9 1.3 2.6 2.3zM4.2 19c1-.7 2.1-1 3.3-1 .8 0 1.6.2 2.3.5s1.4.7 1.9 1.3c1 1 1.6 2.3 1.7 3.7s-.2 2.8-1 3.9c-.7 1-1.6 1.8-2.7 2.2-1.1.5-2.3.6-3.5.3-1.2-.2-2.2-.8-3.1-1.6-.8-.8-1.4-1.9-1.6-3.1-.1-1.2 0-2.4.5-3.5.4-1.1 1.2-2.1 2.2-2.7z"/></svg>