<svg xmlns="http://www.w3.org/2000/svg" fill="none" viewBox="0 0 20 18"  xmlns:v="https://vecta.io/nano"><path d="M6.29 17.251c7.547 0 11.675-6.253 11.675-11.675 0-.178 0-.355-.012-.53A8.35 8.35 0 0 0 20 2.92a8.19 8.19 0 0 1-2.357.646 4.12 4.12 0 0 0 1.804-2.27 8.224 8.224 0 0 1-2.605.996c-.619-.658-1.437-1.094-2.328-1.24s-1.806.006-2.603.432-1.43 1.103-1.803 1.926-.464 1.746-.259 2.625a11.65 11.65 0 0 1-8.457-4.287C.867 2.651.707 3.72.943 4.738s.851 1.907 1.719 2.487A4.073 4.073 0 0 1 .8 6.713v.052c0 .947.328 1.865.928 2.598s1.435 1.236 2.364 1.424c-.604.165-1.238.189-1.853.07a4.11 4.11 0 0 0 3.834 2.85 8.23 8.23 0 0 1-2.867 1.454c-1.042.292-2.131.375-3.206.245 1.877 1.204 4.06 1.843 6.29 1.84" fill="#6b7280"/></svg>